<svg width="32" height="32" xmlns="http://www.w3.org/2000/svg">

 <g>
  <title>background</title>
  <rect fill="none" id="canvas_background" height="402" width="582" y="-1" x="-1"/>
 </g>
 <g>
  <title>Layer 1</title>
  <path id="svg_1" fill="#ffffff" d="m1,9.928316l30,0c0.552,0 1,-0.448 1,-1c0,-0.552 -0.448,-1 -1,-1l-30,0c-0.552,0 -1,0.448 -1,1c0,0.552 0.448,1 1,1z"/>
  <path stroke="null" id="svg_2" fill="#ffffff" d="m31.217292,15l-23.481247,0c-0.432055,0 -0.782708,0.448 -0.782708,1c0,0.552 0.350653,1 0.782708,1l23.481247,0c0.432055,0 0.782708,-0.448 0.782708,-1c0,-0.552 -0.350653,-1 -0.782708,-1z"/>
  <path stroke="null" id="svg_3" fill="#ffffff" d="m31.188985,22l-16.220305,0c-0.44768,0 -0.811015,0.448 -0.811015,1s0.363335,1 0.811015,1l16.220305,0c0.44768,0 0.811015,-0.448 0.811015,-1s-0.363335,-1 -0.811015,-1z"/>
 </g>
</svg>