<svg width="512" height="512" xmlns="http://www.w3.org/2000/svg">

 <g>
  <title>background</title>
  <rect fill="none" id="canvas_background" height="402" width="582" y="-1" x="-1"/>
 </g>
 <g>
  <title>Layer 1</title>
  <path fill="#0000ff" id="svg_13" d="m424,394l-253,0c-4.418,0 -8,-3.582 -8,-8s3.582,-8 8,-8l253,0c4.418,0 8,3.582 8,8s-3.582,8 -8,8z"/>
  <path fill="#0000ff" id="svg_15" d="m119,394l-31,0c-4.418,0 -8,-3.582 -8,-8s3.582,-8 8,-8l31,0c4.418,0 8,3.582 8,8s-3.582,8 -8,8z"/>
  <path fill="#0000ff" id="svg_18" d="m424,265l-253,0c-4.418,0 -8,-3.582 -8,-8c0,-4.418 3.582,-8 8,-8l253,0c4.418,0 8,3.582 8,8c0,4.418 -3.582,8 -8,8z"/>
  <path fill="#0000ff" id="svg_20" d="m119,266.146953l-31,0c-4.418,0 -8,-3.582 -8,-8c0,-4.418 3.582,-8 8,-8l31,0c4.418,0 8,3.582 8,8c0,4.418 -3.582,8 -8,8z"/>
  <path fill="#0000ff" id="svg_23" d="m424,135l-253,0c-4.418,0 -8,-3.582 -8,-8s3.582,-8 8,-8l253,0c4.418,0 8,3.582 8,8s-3.582,8 -8,8z"/>
  <path fill="#0000ff" id="svg_25" d="m119,135l-31,0c-4.418,0 -8,-3.582 -8,-8s3.582,-8 8,-8l31,0c4.418,0 8,3.582 8,8s-3.582,8 -8,8z"/>
 </g>
</svg>